<svg id="svg" xmlns="http://www.w3.org/2000/svg" xmlns:xlink="http://www.w3.org/1999/xlink" width="400" height="64.87394957983193" viewBox="0, 0, 400,64.87394957983193"><g id="svgg"><path id="path0" d="M43.378 14.758 C 43.184 15.121,43.025 15.643,43.025 15.918 C 43.025 16.707,41.095 18.433,40.083 18.549 C 38.936 18.682,38.567 19.832,39.671 19.832 C 41.340 19.832,42.721 21.198,43.180 23.301 C 43.454 24.561,44.000 24.314,44.560 22.677 C 45.074 21.175,46.442 19.912,47.717 19.763 C 48.961 19.618,48.784 18.727,47.457 18.455 C 45.984 18.154,44.766 16.965,44.505 15.573 C 44.244 14.182,43.842 13.892,43.378 14.758 M14.521 15.866 C 14.241 16.145,14.116 17.921,14.113 21.664 L 14.109 27.059 9.732 30.507 C 5.140 34.124,4.694 34.638,5.401 35.490 C 6.110 36.344,6.490 36.088,18.113 26.916 L 29.268 18.113 31.357 19.762 C 32.505 20.669,37.507 24.622,42.472 28.545 C 52.521 36.486,52.039 36.167,52.951 35.489 C 54.082 34.650,53.900 34.491,33.005 18.092 C 28.931 14.894,29.490 14.855,24.709 18.662 L 21.513 21.206 21.513 18.984 C 21.513 15.598,21.372 15.462,17.871 15.462 C 16.027 15.462,14.773 15.613,14.521 15.866 M158.282 16.625 C 156.542 17.597,156.210 20.188,157.664 21.440 C 159.739 23.225,162.689 21.905,162.689 19.190 C 162.689 17.078,160.133 15.590,158.282 16.625 M262.938 32.353 L 263.025 48.571 265.546 48.571 L 268.067 48.571 268.154 32.353 L 268.242 16.134 265.546 16.134 L 262.851 16.134 262.938 32.353 M44.633 20.113 L 43.647 20.943 42.780 20.076 L 41.913 19.209 42.848 18.218 L 43.783 17.228 44.701 18.256 L 45.619 19.283 44.633 20.113 M19.160 20.464 C 19.160 23.087,19.148 23.122,18.006 23.994 C 16.420 25.203,16.471 25.290,16.471 21.345 L 16.471 17.815 17.815 17.815 L 19.160 17.815 19.160 20.464 M72.827 18.067 C 72.683 18.303,61.152 44.192,59.802 47.311 L 59.184 48.739 61.959 48.739 L 64.735 48.739 66.260 45.126 L 67.786 41.513 75.270 41.513 L 82.755 41.513 84.313 45.126 L 85.871 48.739 88.686 48.739 C 90.863 48.739,91.462 48.640,91.332 48.301 C 91.239 48.059,88.171 41.101,84.512 32.838 L 77.861 17.815 75.421 17.815 C 74.079 17.815,72.912 17.929,72.827 18.067 M92.842 20.248 L 92.941 22.689 101.651 22.857 L 110.361 23.025 101.399 33.866 L 92.437 44.706 92.437 46.723 L 92.437 48.739 105.210 48.739 L 117.983 48.739 117.983 46.387 L 117.983 44.034 108.908 44.034 C 103.514 44.034,99.832 43.906,99.832 43.720 C 99.832 43.547,103.923 38.459,108.923 32.412 L 118.015 21.417 117.915 19.700 L 117.815 17.983 105.279 17.895 L 92.743 17.807 92.842 20.248 M133.109 33.291 L 133.109 48.768 135.714 48.670 L 138.319 48.571 138.411 42.269 L 138.502 35.966 145.218 35.966 L 151.933 35.966 151.933 33.613 L 151.933 31.261 145.210 31.261 L 138.487 31.261 138.487 27.065 L 138.487 22.870 145.966 22.780 L 153.445 22.689 153.544 20.252 L 153.643 17.815 143.376 17.815 L 133.109 17.815 133.109 33.291 M242.224 18.172 C 234.484 20.091,229.264 28.485,230.904 36.376 C 233.315 47.972,248.003 52.874,256.908 45.055 C 258.481 43.675,258.467 43.475,256.680 41.721 L 255.209 40.277 253.676 41.447 C 244.175 48.700,231.488 38.335,237.149 27.945 C 240.418 21.946,249.161 20.584,254.052 25.312 L 255.164 26.387 256.645 24.706 C 258.463 22.642,258.472 22.495,256.839 21.202 C 253.213 18.330,246.882 17.017,242.224 18.172 M206.387 22.857 L 206.387 25.882 204.874 25.882 L 203.361 25.882 203.361 27.899 L 203.361 29.916 204.840 29.916 L 206.319 29.916 206.438 36.891 C 206.548 43.292,206.620 43.990,207.308 45.378 C 208.857 48.504,212.558 49.577,216.578 48.065 C 218.921 47.184,219.071 46.888,218.288 44.709 C 217.612 42.831,217.601 42.825,215.915 43.529 C 212.196 45.083,211.765 44.339,211.765 36.360 L 211.765 29.916 215.126 29.916 L 218.487 29.916 218.487 27.899 L 218.487 25.882 215.126 25.882 L 211.765 25.882 211.765 22.857 L 211.765 19.832 209.076 19.832 L 206.387 19.832 206.387 22.857 M50.045 21.481 C 49.842 22.063,49.306 22.623,48.718 22.866 C 47.467 23.384,47.466 23.808,48.715 24.244 C 49.339 24.461,49.825 24.947,50.042 25.571 C 50.420 26.654,51.429 26.919,51.429 25.934 C 51.429 25.212,52.283 24.379,53.361 24.051 C 54.446 23.720,54.296 23.304,52.927 22.852 C 52.015 22.552,51.690 22.230,51.540 21.482 C 51.289 20.225,50.483 20.225,50.045 21.481 M51.279 23.223 C 51.625 23.783,50.846 24.426,50.382 23.962 C 49.994 23.574,50.237 22.857,50.756 22.857 C 50.919 22.857,51.154 23.022,51.279 23.223 M78.020 30.512 L 80.579 36.471 77.936 36.568 C 76.483 36.622,74.108 36.622,72.657 36.568 L 70.021 36.471 72.565 30.504 C 73.964 27.223,75.188 24.541,75.285 24.546 C 75.383 24.550,76.613 27.235,78.020 30.512 M180.840 25.059 C 180.563 25.117,179.776 25.257,179.091 25.368 C 178.406 25.480,177.083 26.085,176.150 26.712 L 174.454 27.854 174.454 26.532 L 174.454 25.210 171.760 25.210 L 169.067 25.210 169.155 36.891 L 169.244 48.571 171.765 48.571 L 174.286 48.571 174.454 41.345 C 174.561 36.755,174.765 33.872,175.013 33.445 C 176.145 31.500,178.831 29.916,180.998 29.916 L 182.185 29.916 182.185 27.395 C 182.185 24.837,182.152 24.781,180.840 25.059 M190.219 25.214 C 186.040 25.921,183.832 28.758,184.291 32.833 C 184.601 35.579,186.259 37.051,190.690 38.512 C 195.715 40.169,196.682 40.975,195.950 42.899 C 195.129 45.060,189.134 44.719,186.109 42.339 C 184.892 41.382,184.645 41.492,183.663 43.429 L 182.778 45.176 183.742 45.966 C 189.534 50.707,199.791 49.058,201.009 43.190 C 201.901 38.895,200.003 36.535,194.118 34.622 C 190.808 33.546,189.361 32.753,189.136 31.894 C 188.456 29.292,193.248 28.516,197.283 30.574 C 198.023 30.952,198.719 31.261,198.829 31.261 C 199.015 31.261,200.672 27.759,200.672 27.367 C 200.672 26.942,196.953 25.551,194.958 25.230 C 192.541 24.842,192.425 24.841,190.219 25.214 M282.857 25.209 C 270.731 27.011,269.615 45.117,281.437 48.264 C 285.149 49.252,289.459 48.551,292.490 46.466 C 295.011 44.731,295.039 44.624,293.417 42.865 L 291.994 41.321 291.123 42.135 C 287.194 45.805,280.743 44.816,278.837 40.252 L 278.310 38.992 287.032 38.992 C 297.127 38.992,296.333 39.340,295.801 35.146 C 295.240 30.725,293.485 27.823,290.405 26.222 C 288.554 25.260,285.381 24.835,282.857 25.209 M307.563 25.240 C 305.264 25.504,303.625 26.083,301.258 27.466 L 299.827 28.302 300.522 29.529 C 301.960 32.067,301.778 32.012,304.414 30.704 C 308.478 28.686,312.719 29.170,313.808 31.776 C 314.827 34.216,314.864 34.195,309.328 34.364 C 301.695 34.596,298.854 36.497,298.831 41.388 C 298.801 47.729,307.989 51.291,313.399 47.035 L 314.286 46.338 314.286 47.539 L 314.286 48.739 316.827 48.739 L 319.368 48.739 319.264 39.748 C 319.166 31.292,319.117 30.676,318.436 29.412 C 316.595 25.990,313.008 24.614,307.563 25.240 M336.626 25.216 C 334.671 25.492,332.998 26.264,331.681 27.496 L 330.756 28.361 330.756 26.786 L 330.756 25.210 328.235 25.210 L 325.714 25.210 325.714 36.975 L 325.714 48.739 328.235 48.739 L 330.756 48.739 330.756 41.887 C 330.756 32.419,332.122 29.913,337.280 29.917 C 341.813 29.921,342.518 31.425,342.520 41.092 L 342.521 48.739 345.042 48.739 L 347.563 48.739 347.548 40.252 C 347.537 34.046,347.413 31.426,347.083 30.504 C 345.673 26.551,341.632 24.508,336.626 25.216 M361.447 25.222 C 349.731 26.872,348.406 44.671,359.744 48.115 C 364.212 49.472,369.822 48.285,372.587 45.398 L 373.576 44.364 372.266 43.022 C 370.820 41.542,370.390 41.410,369.705 42.238 C 366.607 45.984,359.114 44.575,357.342 39.914 L 356.991 38.992 365.733 38.992 C 375.877 38.992,375.082 39.353,374.480 35.013 C 373.477 27.779,368.712 24.199,361.447 25.222 M390.924 25.059 C 390.647 25.117,389.863 25.256,389.181 25.367 C 388.500 25.478,387.176 26.096,386.240 26.739 L 384.538 27.910 384.538 26.560 L 384.538 25.210 381.844 25.210 L 379.151 25.210 379.239 36.891 L 379.328 48.571 381.849 48.571 L 384.370 48.571 384.538 41.291 L 384.706 34.010 385.734 32.719 C 386.992 31.140,389.289 29.916,390.996 29.916 L 392.269 29.916 392.269 27.395 C 392.269 24.837,392.236 24.781,390.924 25.059 M157.311 36.975 L 157.311 48.739 159.832 48.739 L 162.353 48.739 162.353 36.975 L 162.353 25.210 159.832 25.210 L 157.311 25.210 157.311 36.975 M287.201 29.748 C 288.907 30.100,291.092 32.639,291.092 34.269 C 291.092 34.939,290.920 34.958,284.706 34.958 C 277.766 34.958,277.933 35.016,278.977 32.970 C 280.529 29.927,283.130 28.908,287.201 29.748 M365.856 29.748 C 367.562 30.100,369.748 32.639,369.748 34.269 C 369.748 34.955,357.873 35.408,357.212 34.747 C 356.097 33.632,359.593 29.989,362.185 29.565 C 363.478 29.353,364.091 29.384,365.856 29.748 M12.863 32.686 L 11.776 33.445 11.771 43.378 C 11.766 50.662,11.872 53.418,12.168 53.714 C 12.747 54.294,24.199 54.279,24.958 53.697 C 25.407 53.354,25.526 52.467,25.611 48.847 C 25.748 42.994,26.848 41.376,30.126 42.207 C 32.345 42.770,32.756 43.760,32.886 48.847 C 33.030 54.524,32.515 54.118,39.559 54.118 C 47.563 54.118,46.723 55.357,46.723 43.547 L 46.723 33.673 45.630 32.754 L 44.538 31.834 44.449 41.800 L 44.360 51.765 39.827 51.765 L 35.294 51.765 35.287 48.151 C 35.275 42.527,33.660 40.058,29.782 39.737 C 25.320 39.367,23.193 42.106,23.193 48.224 L 23.193 51.765 18.660 51.765 L 14.128 51.765 14.039 41.845 L 13.950 31.926 12.863 32.686 M314.286 39.446 C 314.286 43.763,305.944 46.383,304.023 42.669 C 302.423 39.574,304.248 38.448,311.008 38.361 L 314.286 38.319 314.286 39.446 " stroke="none" fill="#000000" fill-rule="evenodd"></path></g></svg>